<svg width="24" height="20" fill="none" xmlns="http://www.w3.org/2000/svg"><path d="M6.686 6.513L4.09 8.965l7.135 6.774L24 3.626l-2.595-2.46-10.18 9.651-4.54-4.304z" fill="#fff"/><path d="M19.259 17.391c0 .23-.097.452-.269.615a.943.943 0 01-.648.255H2.752a.943.943 0 01-.65-.255.847.847 0 01-.268-.615V2.61c0-.23.097-.452.269-.615a.943.943 0 01.648-.255H18.26L19.71.357A2.867 2.867 0 0018.341 0H2.752c-.73 0-1.43.275-1.946.764A2.542 2.542 0 000 2.61V17.39c0 .692.29 1.356.806 1.845A2.83 2.83 0 002.75 20h15.59c.73 0 1.43-.275 1.946-.764.516-.49.806-1.153.806-1.845V8.843l-1.834 1.74v6.808z" fill="#fff"/></svg>