<svg width="7" height="12" fill="none" xmlns="http://www.w3.org/2000/svg"><path d="M6.84111 5.65875L.9324.14875C.8297.0535.69062 0 .54563 0 .40066 0 .2616.05349.1589.14875.10854.19523.06859.25053.04131.31146.01404.3724 0 .43775 0 .50376c0 .066.01404.13135.04131.19228.02727.06093.06723.11623.11758.16271l5.53271 5.14L.15889 11.1688c-.05035.0464-.0903.1017-.11758.1627A.46982.46982 0 000 11.5238c0 .066.01404.1313.04131.1922.02727.061.06723.1163.11758.1628.10754.0848.24605.1277.38675.12a.53825.53825 0 00.20506-.038c.06476-.0258.12299-.064.17095-.112l5.91946-5.48005c.05035-.04648.09031-.10178.11758-.16271C6.98596 6.14511 7 6.07976 7 6.01375c0-.066-.01404-.13136-.04131-.19229-.02727-.06093-.06723-.11623-.11758-.16271z" fill="#fff"/></svg>