<svg width="32" height="32" fill="none" xmlns="http://www.w3.org/2000/svg"><path d="M16.64 14.49a2.5807 2.5807 0 00.95-.18 1.2003 1.2003 0 00.64-.56c.1043-.2536.1554-.5259.15-.8a1.55022 1.55022 0 00-.18-.7 1.05012 1.05012 0 00-.61-.51 3.00056 3.00056 0 00-1-.17h-2v3h.57c.59-.05 1.08-.06 1.48-.08zM18.12 17.08A4.85132 4.85132 0 0017 17h-2.39v3.5h2.45a3.23034 3.23034 0 001.21-.25c.321-.1108.5932-.3301.77-.62a1.8992 1.8992 0 00.22-.9 1.76004 1.76004 0 00-.26-1 1.59985 1.59985 0 00-.88-.65z" fill="#fff"/><path d="M16 0A15.99998 15.99998 0 001.21793 9.87706a15.99991 15.99991 0 00-.91049 9.24434 15.99993 15.99993 0 004.37886 8.1923 16.0006 16.0006 0 008.1923 4.3789c3.1037.6173 6.3207.3005 9.2443-.9105a15.99962 15.99962 0 007.1806-5.893A16 16 0 0032 16c0-4.2435-1.6857-8.31313-4.6863-11.31371C24.3131 1.68571 20.2435 0 16 0zm6.6 20.53c-.2624.526-.6463.9819-1.12 1.33a5.17025 5.17025 0 01-1.83.88 9.76082 9.76082 0 01-2.51.27H11V9h5.45a20.6104 20.6104 0 012.48.11 5.24921 5.24921 0 011.56.5c.4968.23615.9113.6158 1.19 1.09.2655.4728.4001 1.0079.39 1.55a3.08022 3.08022 0 01-.54 1.8 3.4601 3.4601 0 01-1.53 1.2v.07a3.99985 3.99985 0 012.18 1.13c.5495.6212.8363 1.4315.8 2.26a3.84098 3.84098 0 01-.38 1.82z" fill="#fff"/></svg>