<svg width="32" height="32" fill="none" xmlns="http://www.w3.org/2000/svg"><path d="M16 0c-3.1645 0-6.25793.938384-8.88912 2.69649-2.63118 1.7581-4.68194 4.25696-5.89295 7.18057C.006933 12.8007-.309921 16.0177.307443 19.1214c.617363 3.1037 2.141217 5.9547 4.378857 8.1923 2.23764 2.2376 5.08857 3.7615 8.1923 4.3789 3.1037.6173 6.3207.3005 9.2443-.9105 2.9237-1.211 5.4225-3.2618 7.1806-5.893C31.0616 22.2579 32 19.1645 32 16c0-4.2435-1.6857-8.31313-4.6863-11.31371C24.3131 1.68571 20.2435 0 16 0zm7.94 12.81c-.25 6.52-3.46 10.83-11 10.7h-.48c-.45 0-4.54999-.44-5.34999-1.82 1.78889.2655 3.61279-.1406 5.11999-1.14-1.05-.29-2.91999-.46-3.24999-2.85.41278.1642.86414.2058 1.29999.12-1.27999-.82-2.74999-1.52-2.66999-3.65.41795.3193.93453.482 1.46.46-.77-.23-2.15-3.24-1-4.78C10.07 11.64 12.14 13.33 15.87 13.49c.23-2.21 1.24-3.7 3.17-4.32.6975-.23668 1.4508-.25432 2.1586-.05054.7079.20377 1.3365.61921 1.8014 1.19054.74-.23 1.45-.47 2.19-.69a2.2101 2.2101 0 01-.2666.9629c-.1612.2964-.3881.552-.6634.7471.2567.0301.5168.0036.7621-.0776.2453-.0812.4699-.2152.6579-.3924-.1172.4385-.3357.8434-.6379 1.1821-.3022.3387-.6797.6017-1.1021.7679z" fill="#fff"/></svg>