<svg width="32" height="32" fill="none" xmlns="http://www.w3.org/2000/svg"><g fill="#fff"><path d="M20.92 16a4.95999 4.95999 0 01-4.96 4.96 4.95966 4.95966 0 01-3.5072-1.4528A4.95966 4.95966 0 0111 16c.001-.3842.048-.767.14-1.14h-.9v6.84h11.4v-6.84h-.9c.1006.3725.161.7547.18 1.14z"/><path d="M16 18.66a2.66022 2.66022 0 002.4432-1.6558 2.65974 2.65974 0 00.1432-1.5353 2.65984 2.65984 0 00-.7325-1.3568 2.66065 2.66065 0 00-1.3623-.7224 2.65938 2.65938 0 00-1.5341.1548 2.66037 2.66037 0 00-1.1906.9798A2.66 2.66 0 0013.32 16c.0013.3506.0717.6976.2071 1.021.1354.3234.3331.617.582.8641.2489.247.5439.4425.8684.5755.3244.133.6719.2007 1.0225.1994zM21.68 10.3h-3.04v3.04h3.04V10.3z"/><path d="M16 0A15.99998 15.99998 0 001.21793 9.87706a15.99991 15.99991 0 00-.91049 9.24434 15.99993 15.99993 0 004.37886 8.1923 16.0006 16.0006 0 008.1923 4.3789c3.1037.6173 6.3207.3005 9.2443-.9105a15.99962 15.99962 0 007.1806-5.893A16 16 0 0032 16c0-4.2435-1.6857-8.31313-4.6863-11.31371C24.3131 1.68571 20.2435 0 16 0zm8 21.7c.0027.3045-.0556.6064-.1715.888a2.27793 2.27793 0 01-.5032.7515 2.27835 2.27835 0 01-.7558.4967c-.2826.1135-.585.1692-.8895.1638h-11.4a2.28966 2.28966 0 01-1.61634-.6778A2.28981 2.28981 0 018.00001 21.7V10.3a2.2899 2.2899 0 01.66365-1.62221A2.28993 2.28993 0 0110.28 8h11.39c.3049-.00533.6078.0503.891.16362.2831.11332.5407.28206.7578.4963.217.21424.3891.46967.5061.75131.1169.28164.1765.58381.1751.88877v11.4z"/></g></svg>